<?xml version="1.0" encoding="UTF-8" standalone="no"?>
<!-- Created with Inkscape (http://www.inkscape.org/) -->

<svg
   xmlns:dc="http://purl.org/dc/elements/1.1/"
   xmlns:cc="http://creativecommons.org/ns#"
   xmlns:rdf="http://www.w3.org/1999/02/22-rdf-syntax-ns#"
   xmlns:svg="http://www.w3.org/2000/svg"
   xmlns="http://www.w3.org/2000/svg"
   xmlns:sodipodi="http://sodipodi.sourceforge.net/DTD/sodipodi-0.dtd"
   xmlns:inkscape="http://www.inkscape.org/namespaces/inkscape"
   id="svg2"
   version="1.1"
   inkscape:version="0.48.4 r9939"
   width="118.04375"
   height="134.36719"
   xml:space="preserve"
   sodipodi:docname="ranvier.png"><metadata
     id="metadata8"><rdf:RDF><cc:Work
         rdf:about=""><dc:format>image/svg+xml</dc:format><dc:type
           rdf:resource="http://purl.org/dc/dcmitype/StillImage" /><dc:title></dc:title></cc:Work></rdf:RDF></metadata><defs
     id="defs6"><clipPath
       clipPathUnits="userSpaceOnUse"
       id="clipPath16"><path
         d="M 0,600 600,600 600,0 0,0 0,600 z"
         id="path18"
         inkscape:connector-curvature="0" /></clipPath><clipPath
       clipPathUnits="userSpaceOnUse"
       id="clipPath52"><path
         d="m 239.032,373.393 -42.134,-24.315 c -1.576,-0.909 -2.545,-2.588 -2.545,-4.407 l 0,0 0,-48.666 c 0,-1.818 0.969,-3.497 2.544,-4.408 l 0,0 42.133,-24.334 c 1.576,-0.909 3.516,-0.909 5.091,0 l 0,0 42.124,24.334 c 1.574,0.911 2.543,2.59 2.543,4.408 l 0,0 0,48.668 c 0,1.817 -0.969,3.496 -2.545,4.405 l 0,0 -42.123,24.315 c -0.787,0.454 -1.666,0.682 -2.544,0.682 l 0,0 c -0.879,0 -1.757,-0.228 -2.544,-0.682"
         id="path54"
         inkscape:connector-curvature="0" /></clipPath><linearGradient
       x1="0"
       y1="0"
       x2="1"
       y2="0"
       gradientUnits="userSpaceOnUse"
       gradientTransform="matrix(-38.064877,-77.652351,-77.652351,38.064877,258.70169,355.28543)"
       spreadMethod="pad"
       id="linearGradient60"><stop
         style="stop-opacity:1;stop-color:#006cb3"
         offset="0"
         id="stop62" /><stop
         style="stop-opacity:1;stop-color:#00ffab"
         offset="1"
         id="stop64" /></linearGradient><clipPath
       clipPathUnits="userSpaceOnUse"
       id="clipPath72"><path
         d="m 195.4,292.914 c 0.401,-0.525 0.906,-0.975 1.497,-1.317 l 0,0 36.143,-20.874 6.017,-3.46 c 0.9,-0.519 1.927,-0.739 2.936,-0.665 l 0,0 c 0.337,0.028 0.673,0.09 1.001,0.185 l 0,0 44.43,81.357 c -0.34,0.365 -0.736,0.682 -1.181,0.938 l 0,0 -27.588,15.925 -14.579,8.39 c -0.417,0.24 -0.864,0.413 -1.323,0.526 l 0,0 -47.353,-81.005 z"
         id="path74"
         inkscape:connector-curvature="0" /></clipPath><linearGradient
       x1="0"
       y1="0"
       x2="1"
       y2="0"
       gradientUnits="userSpaceOnUse"
       gradientTransform="matrix(106.80725,78.914902,78.914902,-106.80725,235.15767,314.64658)"
       spreadMethod="pad"
       id="linearGradient80"><stop
         style="stop-opacity:1;stop-color:#006cb3"
         offset="0"
         id="stop82" /><stop
         style="stop-opacity:1;stop-color:#7611a9"
         offset="0.908084"
         id="stop84" /><stop
         style="stop-opacity:1;stop-color:#7611a9"
         offset="0.908084"
         id="stop86" /><stop
         style="stop-opacity:1;stop-color:#7611a9"
         offset="1"
         id="stop88" /></linearGradient><clipPath
       clipPathUnits="userSpaceOnUse"
       id="clipPath96"><path
         d="m 239.032,373.393 -42.134,-24.315 c -1.575,-0.909 -2.545,-2.588 -2.545,-4.407 l 0,-48.666 c 0,-1.818 0.97,-3.497 2.544,-4.408 l 42.133,-24.334 c 1.576,-0.909 3.516,-0.909 5.091,0 l 42.124,24.334 c 1.574,0.911 2.543,2.59 2.543,4.408 l 0,48.668 c 0,1.817 -0.969,3.496 -2.545,4.405 l -42.123,24.315 c -0.787,0.454 -1.666,0.682 -2.544,0.682 -0.879,0 -1.757,-0.228 -2.544,-0.682"
         id="path98"
         inkscape:connector-curvature="0" /></clipPath><clipPath
       clipPathUnits="userSpaceOnUse"
       id="clipPath104"><path
         d="m 237.627,382.331 -0.58,-0.331 0.774,0 -0.194,0.331 z"
         id="path106"
         inkscape:connector-curvature="0" /></clipPath><linearGradient
       x1="0"
       y1="0"
       x2="1"
       y2="0"
       gradientUnits="userSpaceOnUse"
       gradientTransform="matrix(97.416992,0,0,-97.416992,192.8623,382.16568)"
       spreadMethod="pad"
       id="linearGradient112"><stop
         style="stop-opacity:1;stop-color:#7611a9"
         offset="0"
         id="stop114" /><stop
         style="stop-opacity:1;stop-color:#006cb3"
         offset="0.862444"
         id="stop116" /><stop
         style="stop-opacity:1;stop-color:#006cb3"
         offset="0.862444"
         id="stop118" /><stop
         style="stop-opacity:1;stop-color:#006cb3"
         offset="1"
         id="stop120" /></linearGradient><clipPath
       clipPathUnits="userSpaceOnUse"
       id="clipPath128"><path
         d="m 241.065,374.048 c -0.705,-0.07 -1.398,-0.289 -2.033,-0.655 l 0,0 -42.014,-24.245 45.293,-82.513 c 0.628,0.091 1.243,0.301 1.81,0.628 l 0,0 42.124,24.334 c 1.301,0.753 2.189,2.031 2.458,3.477 l 0,0 -46.178,78.89 c -0.341,0.068 -0.688,0.102 -1.035,0.102 l 0,0 c -0.142,0 -0.284,-0.006 -0.425,-0.018"
         id="path130"
         inkscape:connector-curvature="0" /></clipPath><linearGradient
       x1="0"
       y1="0"
       x2="1"
       y2="0"
       gradientUnits="userSpaceOnUse"
       gradientTransform="matrix(97.416992,0,0,-97.416992,192.8623,320.34848)"
       spreadMethod="pad"
       id="linearGradient136"><stop
         style="stop-opacity:1;stop-color:#7611a9"
         offset="0"
         id="stop138" /><stop
         style="stop-opacity:1;stop-color:#006cb3"
         offset="0.862444"
         id="stop140" /><stop
         style="stop-opacity:1;stop-color:#006cb3"
         offset="0.862444"
         id="stop142" /><stop
         style="stop-opacity:1;stop-color:#006cb3"
         offset="1"
         id="stop144" /></linearGradient><clipPath
       clipPathUnits="userSpaceOnUse"
       id="clipPath152"><path
         d="m 239.032,373.393 -42.134,-24.315 c -1.575,-0.909 -2.545,-2.588 -2.545,-4.407 l 0,-48.666 c 0,-1.818 0.97,-3.497 2.544,-4.408 l 42.133,-24.334 c 1.576,-0.909 3.516,-0.909 5.091,0 l 42.124,24.334 c 1.574,0.911 2.543,2.59 2.543,4.408 l 0,48.668 c 0,1.817 -0.969,3.496 -2.545,4.405 l -42.123,24.315 c -0.787,0.454 -1.666,0.682 -2.544,0.682 -0.879,0 -1.757,-0.228 -2.544,-0.682"
         id="path154"
         inkscape:connector-curvature="0" /></clipPath><clipPath
       clipPathUnits="userSpaceOnUse"
       id="clipPath160"><path
         d="m 290.279,292.38 -0.279,0.477 0,-0.639 0.279,0.162 z"
         id="path162"
         inkscape:connector-curvature="0" /></clipPath><linearGradient
       x1="0"
       y1="0"
       x2="1"
       y2="0"
       gradientUnits="userSpaceOnUse"
       gradientTransform="matrix(97.416992,0,0,-97.416992,192.8623,292.53787)"
       spreadMethod="pad"
       id="linearGradient168"><stop
         style="stop-opacity:1;stop-color:#7611a9"
         offset="0"
         id="stop170" /><stop
         style="stop-opacity:1;stop-color:#006cb3"
         offset="0.862444"
         id="stop172" /><stop
         style="stop-opacity:1;stop-color:#006cb3"
         offset="0.862444"
         id="stop174" /><stop
         style="stop-opacity:1;stop-color:#006cb3"
         offset="1"
         id="stop176" /></linearGradient><clipPath
       clipPathUnits="userSpaceOnUse"
       id="clipPath184"><path
         d="m 239.032,373.393 -42.134,-24.315 c -1.575,-0.909 -2.545,-2.588 -2.545,-4.407 l 0,-48.666 c 0,-1.818 0.97,-3.497 2.544,-4.408 l 42.133,-24.334 c 1.576,-0.909 3.516,-0.909 5.091,0 l 42.124,24.334 c 1.574,0.911 2.543,2.59 2.543,4.408 l 0,48.668 c 0,1.817 -0.969,3.496 -2.545,4.405 l -42.123,24.315 c -0.787,0.454 -1.666,0.682 -2.544,0.682 -0.879,0 -1.757,-0.228 -2.544,-0.682"
         id="path186"
         inkscape:connector-curvature="0" /></clipPath><clipPath
       clipPathUnits="userSpaceOnUse"
       id="clipPath192"><path
         d="m 286.351,291.597 -42.177,-24.333 c -0.58,-0.335 -1.213,-0.545 -1.861,-0.633 l 0.84,-1.53 46.847,27.117 0,0.639 -1.158,1.979 c -0.347,-1.348 -1.263,-2.528 -2.491,-3.239"
         id="path194"
         inkscape:connector-curvature="0" /></clipPath><linearGradient
       x1="0"
       y1="0"
       x2="1"
       y2="0"
       gradientUnits="userSpaceOnUse"
       gradientTransform="matrix(97.416992,0,0,-97.416992,192.8623,279.9682)"
       spreadMethod="pad"
       id="linearGradient200"><stop
         style="stop-opacity:1;stop-color:#7611a9"
         offset="0"
         id="stop202" /><stop
         style="stop-opacity:1;stop-color:#006cb3"
         offset="0.862444"
         id="stop204" /><stop
         style="stop-opacity:1;stop-color:#006cb3"
         offset="0.862444"
         id="stop206" /><stop
         style="stop-opacity:1;stop-color:#006cb3"
         offset="1"
         id="stop208" /></linearGradient><clipPath
       clipPathUnits="userSpaceOnUse"
       id="clipPath216"><path
         d="m 239.032,373.393 -42.134,-24.315 c -1.575,-0.909 -2.545,-2.588 -2.545,-4.407 l 0,-48.666 c 0,-1.818 0.97,-3.497 2.544,-4.408 l 42.133,-24.334 c 1.576,-0.909 3.516,-0.909 5.091,0 l 42.124,24.334 c 1.574,0.911 2.543,2.59 2.543,4.408 l 0,48.668 c 0,1.817 -0.969,3.496 -2.545,4.405 l -42.123,24.315 c -0.787,0.454 -1.666,0.682 -2.544,0.682 -0.879,0 -1.757,-0.228 -2.544,-0.682"
         id="path218"
         inkscape:connector-curvature="0" /></clipPath><clipPath
       clipPathUnits="userSpaceOnUse"
       id="clipPath224"><path
         d="m 286.351,291.597 -42.177,-24.333 c -0.58,-0.335 -1.213,-0.545 -1.861,-0.633 l 0.84,-1.53 46.847,27.117 0,0.639 -1.158,1.979 c -0.347,-1.348 -1.263,-2.528 -2.491,-3.239"
         id="path226"
         inkscape:connector-curvature="0" /></clipPath><linearGradient
       x1="0"
       y1="0"
       x2="1"
       y2="0"
       gradientUnits="userSpaceOnUse"
       gradientTransform="matrix(-60.080605,-122.56444,-122.56444,60.080605,304.47177,357.58765)"
       spreadMethod="pad"
       id="linearGradient232"><stop
         style="stop-opacity:1;stop-color:#006cb3"
         offset="0"
         id="stop234" /><stop
         style="stop-opacity:1;stop-color:#00ffab"
         offset="1"
         id="stop236" /></linearGradient></defs><sodipodi:namedview
     pagecolor="#ffffff"
     bordercolor="#666666"
     borderopacity="1"
     objecttolerance="10"
     gridtolerance="10"
     guidetolerance="10"
     inkscape:pageopacity="0"
     inkscape:pageshadow="2"
     inkscape:window-width="1920"
     inkscape:window-height="1056"
     id="namedview4"
     showgrid="false"
     inkscape:snap-smooth-nodes="true"
     fit-margin-top="0"
     fit-margin-left="0"
     fit-margin-right="0"
     fit-margin-bottom="0"
     inkscape:zoom="2.8284271"
     inkscape:cx="32.127778"
     inkscape:cy="53.760321"
     inkscape:window-x="3000"
     inkscape:window-y="460"
     inkscape:window-maximized="1"
     inkscape:current-layer="g10" /><g
     id="g10"
     inkscape:groupmode="layer"
     inkscape:label=""
     transform="matrix(1.25,0,0,-1.25,-242.94125,467.59375)"><g
       id="g3247"><g
         id="g48"><g
           clip-path="url(#clipPath52)"
           id="g50"><g
             id="g56"><g
               id="g58"><path
                 inkscape:connector-curvature="0"
                 id="path66"
                 style="fill:#689f63;fill-opacity:1;stroke:none"
                 d="m 239.032,373.393 -42.134,-24.315 c -1.576,-0.909 -2.545,-2.588 -2.545,-4.407 l 0,0 0,-48.666 c 0,-1.818 0.969,-3.497 2.544,-4.408 l 0,0 42.133,-24.334 c 1.576,-0.909 3.516,-0.909 5.091,0 l 0,0 42.124,24.334 c 1.574,0.911 2.543,2.59 2.543,4.408 l 0,0 0,48.668 c 0,1.817 -0.969,3.496 -2.545,4.405 l 0,0 -42.123,24.315 c -0.787,0.454 -1.666,0.682 -2.544,0.682 l 0,0 c -0.879,0 -1.757,-0.228 -2.544,-0.682" /></g></g></g></g><g
         id="g3270"><g
           id="g12"
           transform="matrix(1,0,0,0.98958924,16.84322,-118.33608)"><g
             id="g40"
             transform="matrix(0.5819562,0,0,0.5819562,249.31159,457.61044)"><path
               d="m 3.8225837,-12.013834 c 1.576,0.915 2.546,2.6009996 2.546,4.4239996 l 0,11.854 c 0,1.823 -0.97,3.51 -2.548,4.425 L -38.278416,33.132166 c -1.584,0.921 -3.539,0.922 -5.127,0.007 l -42.356,-24.4530004 c -1.583,-0.914 -2.75107,-2.6995504 -2.75107,-4.5275504 l 0.01532,-2.3473706 0.07857,-69.5846146 c 6.59e-4,-0.759863 0.0933,-1.025638 0.369028,-1.433083 0.219598,-0.324506 0.617034,-0.480843 0.945939,-0.690797 8.163901,-5.211371 25.408552,-14.060823 25.408552,-14.060823 0.679123,-0.321145 1.485114,-0.768295 2.191259,-0.51352 1.023699,0.369348 1.986744,1.687202 1.991744,2.609202 l 0.467662,54.046557 0,15.326 c 0,0.914 0.488,1.76 1.281,2.216 l 13.266,7.6479996 c 0.789,0.456 1.764,0.456 2.554,0 l 13.272,-7.6479996 c 0.793,-0.456 1.28,-1.302 1.28,-2.216 l 0,-12.058 c 0,-0.916 0.49,-1.762 1.283,-2.218 0.793,-0.458 1.77,-0.454 2.561,0.005 z"
               style="fill:#ffffff;fill-opacity:1;stroke:none"
               id="path42"
               inkscape:connector-curvature="0"
               sodipodi:nodetypes="csscccccccaasaccsccccssccc" /></g></g></g></g></g></svg>